<?xml version="1.0" encoding="UTF-8" standalone="no"?>
<!-- Created with Inkscape (http://www.inkscape.org/) -->

<svg
   width="130.00941mm"
   height="25.392099mm"
   viewBox="0 0 130.00941 25.392099"
   version="1.1"
   id="svg5"
   inkscape:version="1.1.2 (b8e25be833, 2022-02-05)"
   sodipodi:docname="haedi_ops.svg"
   xmlns:inkscape="http://www.inkscape.org/namespaces/inkscape"
   xmlns:sodipodi="http://sodipodi.sourceforge.net/DTD/sodipodi-0.dtd"
   xmlns="http://www.w3.org/2000/svg"
   xmlns:svg="http://www.w3.org/2000/svg">
  <sodipodi:namedview
     id="namedview7"
     pagecolor="#ffffff"
     bordercolor="#666666"
     borderopacity="1.0"
     inkscape:pageshadow="2"
     inkscape:pageopacity="0.0"
     inkscape:pagecheckerboard="0"
     inkscape:document-units="mm"
     showgrid="false"
     inkscape:zoom="1.466344"
     inkscape:cx="262.21678"
     inkscape:cy="34.780379"
     inkscape:window-width="1920"
     inkscape:window-height="1009"
     inkscape:window-x="-8"
     inkscape:window-y="-8"
     inkscape:window-maximized="1"
     inkscape:current-layer="layer1-4" />
  <defs
     id="defs2">
    <inkscape:path-effect
       effect="bspline"
       id="path-effect867"
       is_visible="true"
       lpeversion="1"
       weight="33.333333"
       steps="2"
       helper_size="0"
       apply_no_weight="true"
       apply_with_weight="true"
       only_selected="false" />
    <inkscape:path-effect
       effect="bspline"
       id="path-effect867-3"
       is_visible="true"
       lpeversion="1"
       weight="33.333333"
       steps="2"
       helper_size="0"
       apply_no_weight="true"
       apply_with_weight="true"
       only_selected="false" />
  </defs>
  <g
     inkscape:label="Layer 1"
     inkscape:groupmode="layer"
     id="layer1"
     transform="translate(-46.963236,-153.20016)">
    <g
       inkscape:label="Layer 1"
       id="layer1-4"
       transform="translate(-48.234554,77.457762)">
      <g
         aria-label="glisten"
         id="text2306"
         style="font-size:25.4px;line-height:1.25;font-family:'Montserrat Alternates';-inkscape-font-specification:'Montserrat Alternates';fill:#2b2b2b;stroke-width:0.264583">
        <g
           aria-label="haedi"
           id="text1584"
           style="stroke-width:0.0700042">
          <path
             d="m 102.89399,82.375086 c -1.8796,0 -3.4798,0.6096 -4.5212,1.7272 v -6.857999 h -3.175 v 18.846799 h 3.175 v -6.858 c 0,-2.7178 1.524,-4.0894 3.7846,-4.0894 2.032,0 3.2258,1.1684 3.2258,3.5814 v 7.366 h 3.175 v -7.7724 c 0,-4.0894 -2.413,-5.9436 -5.6642,-5.9436 z"
             id="path7646" />
          <path
             d="m 122.80755,82.527486 v 1.651 c -1.0922,-1.2192 -2.6162,-1.8034 -4.3434,-1.8034 -3.9624,0 -6.858,2.7178 -6.858,6.9342 0,4.2164 2.8956,6.9596 6.858,6.9596 1.8542,0 3.429,-0.635 4.4958,-1.9304 v 1.7526 h 3.0226 v -13.5636 z m -3.9878,11.0236 c -2.286,0 -4.0132,-1.651 -4.0132,-4.2418 0,-2.5908 1.7272,-4.2418 4.0132,-4.2418 2.3114,0 4.0386,1.651 4.0386,4.2418 0,2.5908 -1.7272,4.2418 -4.0386,4.2418 z"
             id="path7648" />
          <path
             d="m 136.59973,93.576486 c -1.9812,0 -3.4544,-0.8382 -4.1148,-2.3876 l 10.3886,-2.032 c -0.0254,-4.2418 -3.0734,-6.7818 -6.858,-6.7818 -4.0386,0 -6.985,2.8956 -6.985,6.9342 0,4.0386 2.9464,6.9596 7.493,6.9596 2.3368,0 4.2418,-0.762 5.4356,-2.2098 l -1.6764,-1.9558 c -0.9906,0.9906 -2.159,1.4732 -3.683,1.4732 z m -0.5842,-8.6614 c 1.905,0 3.3274,1.1176 3.7592,2.7686 l -7.6708,1.4732 v -0.0254 c 0,-2.5908 1.6002,-4.2164 3.9116,-4.2164 z"
             id="path7650" />
          <path
             d="m 156.03068,77.244287 v 6.959599 c -1.0668,-1.2446 -2.6162,-1.8288 -4.3688,-1.8288 -3.937,0 -6.858,2.7178 -6.858,6.9342 0,4.2164 2.921,6.9596 6.858,6.9596 1.8542,0 3.429,-0.635 4.4958,-1.9304 v 1.7526 h 3.048 V 77.244287 Z m -3.9878,16.306799 c -2.286,0 -4.0386,-1.651 -4.0386,-4.2418 0,-2.5908 1.7526,-4.2418 4.0386,-4.2418 2.286,0 4.0386,1.651 4.0386,4.2418 0,2.5908 -1.7526,4.2418 -4.0386,4.2418 z"
             id="path7652" />
          <path
             d="m 164.97144,80.292287 c 1.1938,0 2.032,-0.8636 2.032,-1.9812 0,-1.0414 -0.8636,-1.8288 -2.032,-1.8288 -1.1684,0 -2.032,0.8382 -2.032,1.905 0,1.0668 0.8636,1.905 2.032,1.905 z m -1.6002,15.798799 h 3.175 v -13.5636 h -3.175 z"
             id="path7654" />
        </g>
      </g>
      <g
         aria-label="haedi"
         id="text1584-7"
         style="font-size:25.4px;line-height:1.25;font-family:'Montserrat Alternates';-inkscape-font-specification:'Montserrat Alternates';fill:#2b2b2b;fill-opacity:1;stroke-width:0.0700042"
         transform="translate(-14.757877,62.074307)">
        <text
           xml:space="preserve"
           style="font-style:normal;font-variant:normal;font-weight:600;font-stretch:normal;font-size:25.4px;line-height:1.25;font-family:'Montserrat Alternates';-inkscape-font-specification:'Montserrat Alternates Semi-Bold';fill:#2b2b2b;fill-opacity:1;stroke:none;stroke-width:0.0185219"
           x="210.12006"
           y="34.036583"
           id="text787"><tspan
             sodipodi:role="line"
             id="tspan785"
             style="font-style:normal;font-variant:normal;font-weight:600;font-stretch:normal;font-size:25.4px;font-family:'Montserrat Alternates';-inkscape-font-specification:'Montserrat Alternates Semi-Bold';fill:#2b2b2b;fill-opacity:1;stroke-width:0.0185219"
             x="210.12006"
             y="34.036583">ps</tspan></text>
      </g>
    </g>
    <path
       d="m 135.42146,153.22802 c -0.0318,0.016 -0.0834,0.0517 -0.11129,0.0834 -0.0279,0.0318 -0.30399,0.53046 -0.61391,1.11062 -0.30995,0.57815 -0.59209,1.0987 -0.62785,1.15632 -0.10529,0.16689 -0.0974,0.1649 -0.65167,0.18677 l -0.49075,0.0219 -0.10529,-0.0517 c -0.10529,-0.0517 -0.11718,-0.0676 -0.8265,-1.09076 -0.39737,-0.57021 -0.74107,-1.06493 -0.76691,-1.09869 -0.0576,-0.0775 -0.15895,-0.12716 -0.26227,-0.12716 -0.0854,0 -2.33251,0.74703 -2.41,0.80068 -0.11522,0.0814 -0.13908,0.17682 -0.11719,0.46689 0.0478,0.58811 0.14106,1.77225 0.16093,2.04445 l 0.0238,0.30398 -0.0576,0.11325 c -0.0556,0.10933 -0.0755,0.12717 -0.46491,0.39737 -0.22452,0.15495 -0.43909,0.29207 -0.47684,0.30398 -0.16291,0.0477 -0.18279,0.0418 -1.46229,-0.48875 -1.31329,-0.54439 -1.27553,-0.53048 -1.43052,-0.46095 -0.0756,0.0358 -1.55169,1.87158 -1.58149,1.96695 -0.016,0.0576 -0.016,0.0953 0,0.15298 0.0159,0.0498 0.30199,0.44306 0.79869,1.09673 0.67155,0.88611 0.77684,1.03513 0.79671,1.12056 0.0279,0.12914 0.0279,0.12914 -0.23047,0.74505 -0.22848,0.55035 -0.28013,0.62784 -0.43511,0.68347 -0.0458,0.016 -0.64373,0.13114 -1.33315,0.25431 -1.31131,0.23444 -1.31727,0.23643 -1.40467,0.35565 -0.10329,0.13907 -0.35962,2.51926 -0.27617,2.56894 0.0123,0.008 0.58213,0.21855 1.2656,0.46889 0.68346,0.25033 1.27156,0.47286 1.30533,0.49273 0.13112,0.0756 0.16094,0.16093 0.28014,0.82056 0.0616,0.33576 0.11129,0.65167 0.11129,0.70531 0,0.0616 -0.0179,0.12916 -0.0457,0.1808 -0.0299,0.0576 -0.33181,0.35166 -0.97753,0.95169 -0.51459,0.47683 -0.95168,0.89604 -0.97353,0.92784 -0.0258,0.0418 -0.0377,0.0934 -0.0358,0.16094 0,0.0914 0.0498,0.1927 0.50662,1.08081 0.28015,0.53844 0.53248,1.00534 0.56227,1.03713 0.0279,0.0298 0.0894,0.0655 0.13511,0.0775 0.0775,0.0219 0.17285,0.005 1.3252,-0.25631 1.29938,-0.29404 1.34507,-0.3 1.49011,-0.23245 0.0775,0.0377 1.00137,0.99142 1.05698,1.09077 0.0755,0.13907 0.0716,0.17881 -0.13113,0.96956 -0.46689,1.82191 -0.45696,1.78217 -0.43114,1.8676 0.0123,0.0437 0.0437,0.10129 0.0676,0.12915 0.0238,0.0279 0.48082,0.29603 1.01526,0.59604 0.88015,0.49472 0.98149,0.54637 1.06295,0.54637 0.0537,0 0.11719,-0.0158 0.15099,-0.0357 0.0338,-0.0219 0.45698,-0.44107 0.94374,-0.9358 0.48676,-0.4947 0.91592,-0.91592 0.95764,-0.93578 0.14504,-0.0775 0.18478,-0.0736 0.91195,0.0894 0.3755,0.0834 0.70533,0.16491 0.73115,0.18279 0.13709,0.0894 0.14503,0.10724 0.56823,1.37884 0.39934,1.19805 0.41126,1.22984 0.48677,1.29739 0.0437,0.0397 0.10933,0.0755 0.15298,0.0834 0.1808,0.0338 1.30733,-0.0377 2.02655,-0.12914 0.32584,-0.0416 0.39537,-0.0755 0.45102,-0.22452 0.0179,-0.0477 0.149,-0.63974 0.29006,-1.31526 0.17087,-0.80665 0.2722,-1.25169 0.29604,-1.29143 0.0775,-0.12318 0.13511,-0.15299 0.74109,-0.38345 0.65365,-0.25034 0.7371,-0.26822 0.88214,-0.19075 0.0358,0.0199 0.49273,0.37949 1.01327,0.80071 0.52253,0.4212 0.97553,0.78082 1.00931,0.80068 0.0437,0.0259 0.0894,0.0338 0.1649,0.0279 0.10129,-0.006 0.12318,-0.0219 0.6934,-0.45298 1.15831,-0.8762 1.2676,-0.96162 1.30533,-1.01528 0.0219,-0.0279 0.0437,-0.0953 0.0478,-0.14899 0.009,-0.0875 -0.0299,-0.20267 -0.45102,-1.30733 -0.25431,-0.66757 -0.4669,-1.24375 -0.47088,-1.2815 -0.0199,-0.13709 0.0259,-0.22252 0.34372,-0.65962 0.17087,-0.23245 0.32983,-0.44506 0.35366,-0.46889 0.0695,-0.0775 0.18875,-0.12915 0.30001,-0.12716 0.0537,0 0.6477,0.0596 1.31726,0.13312 l 1.21592,0.13113 0.0854,-0.0377 c 0.0457,-0.0219 0.0994,-0.0557 0.11915,-0.0775 0.0279,-0.0317 0.7232,-1.89541 0.83844,-2.24708 0.0437,-0.12914 0.0159,-0.23842 -0.0854,-0.34173 -0.0397,-0.0418 -0.53247,-0.41326 -1.09474,-0.82651 -1.0093,-0.7411 -1.02123,-0.75103 -1.0709,-0.8603 l -0.0497,-0.10932 0.0238,-0.42718 c 0.0318,-0.55829 0.0358,-0.58411 0.10932,-0.69141 0.0596,-0.0855 0.10529,-0.11128 1.21792,-0.66955 0.63777,-0.31988 1.17222,-0.59406 1.1901,-0.60797 0.0437,-0.0377 0.10724,-0.16888 0.10724,-0.22252 0,-0.0834 -0.51458,-2.41795 -0.54637,-2.47954 -0.0179,-0.0338 -0.0635,-0.0814 -0.10529,-0.10933 -0.0834,-0.0537 0.001,-0.0478 -2.01265,-0.17682 -0.77287,-0.0497 -0.78677,-0.0537 -0.904,-0.16491 -0.0854,-0.0814 -0.44306,-0.75499 -0.45696,-0.86228 -0.008,-0.0537 0,-0.11927 0.0159,-0.16689 0.016,-0.0437 0.32186,-0.5742 0.67949,-1.17817 0.62387,-1.04905 0.65168,-1.1007 0.65168,-1.19607 -10e-4,-0.0537 -0.0139,-0.11915 -0.0279,-0.14702 -0.0259,-0.0497 -1.68879,-1.75635 -1.78415,-1.82986 -0.0299,-0.0238 -0.0894,-0.0418 -0.15895,-0.0457 l -0.11326,-0.008 -1.12055,0.62187 c -0.61591,0.34173 -1.15633,0.63379 -1.20004,0.64969 -0.13709,0.0478 -0.2265,0.0179 -0.59604,-0.18875 -0.37352,-0.20862 -0.41327,-0.23842 -0.47088,-0.35167 -0.0517,-0.0994 -0.0498,-0.0736 -0.0974,-1.4921 -0.0397,-1.17221 -0.0416,-1.21393 -0.0854,-1.30136 -0.0736,-0.14902 0.0715,-0.10529 -1.95502,-0.58809 -0.34174,-0.0795 -0.64174,-0.14704 -0.66558,-0.14704 -0.0238,10e-4 -0.0695,0.0139 -0.10329,0.0279 z m -0.76491,5.26506 c 0.54636,0.0715 0.99934,0.17285 1.47023,0.32981 2.5014,0.82651 4.41668,2.98023 4.93524,5.54718 0.11326,0.56227 0.13909,0.83249 0.13909,1.48615 0.001,0.6159 -0.008,0.76689 -0.0894,1.26162 -0.38146,2.32258 -1.89741,4.36502 -4.02131,5.41407 -0.80466,0.39736 -1.50004,0.60598 -2.4736,0.7391 -0.30396,0.0418 -1.41262,0.0338 -1.74838,-0.009 -1.73648,-0.23644 -3.25043,-0.99142 -4.43059,-2.21133 -1.68681,-1.74443 -2.40803,-4.14848 -1.96695,-6.55649 0.29006,-1.5835 1.15037,-3.09547 2.37622,-4.17829 1.20997,-1.0669 2.68617,-1.70069 4.30941,-1.84772 0.30002,-0.0279 1.20797,-0.0123 1.50005,0.0258 z"
       id="path40"
       style="fill:#2b2b2b;fill-opacity:1;stroke:none;stroke-width:0.00198682" />
  </g>
</svg>
