<?xml version="1.0" encoding="UTF-8" standalone="no"?>
<!-- Created with Inkscape (http://www.inkscape.org/) -->

<svg
   width="159.49478mm"
   height="19.7866mm"
   viewBox="0 0 159.49478 19.7866"
   version="1.1"
   id="svg5"
   inkscape:version="1.1 (c68e22c387, 2021-05-23)"
   sodipodi:docname="logo.svg"
   xmlns:inkscape="http://www.inkscape.org/namespaces/inkscape"
   xmlns:sodipodi="http://sodipodi.sourceforge.net/DTD/sodipodi-0.dtd"
   xmlns="http://www.w3.org/2000/svg"
   xmlns:svg="http://www.w3.org/2000/svg">
  <sodipodi:namedview
     id="namedview7"
     pagecolor="#ffffff"
     bordercolor="#666666"
     borderopacity="1.0"
     inkscape:pageshadow="2"
     inkscape:pageopacity="0.0"
     inkscape:pagecheckerboard="0"
     inkscape:document-units="mm"
     showgrid="false"
     inkscape:zoom="0.76791526"
     inkscape:cx="334.02123"
     inkscape:cy="146.50054"
     inkscape:window-width="2400"
     inkscape:window-height="1271"
     inkscape:window-x="-9"
     inkscape:window-y="-9"
     inkscape:window-maximized="1"
     inkscape:current-layer="text2102" />
  <defs
     id="defs2" />
  <g
     inkscape:label="Layer 1"
     inkscape:groupmode="layer"
     id="layer1"
     transform="translate(-16.553798,-109.59654)">
    <g
       aria-label="machin·dev"
       id="text2102"
       style="font-size:25.4px;line-height:1.25;font-family:'Montserrat Alternates';-inkscape-font-specification:'Montserrat Alternates';stroke-width:0.264583">
      <path
         d="m 33.673398,115.48934 c -2.159,0 -3.9878,0.8636 -5.08,2.2606 -0.9398,-1.524 -2.5908,-2.2606 -4.572,-2.2606 -1.8542,0 -3.429,0.6604 -4.445,1.8796 v -1.7272 h -3.0226 v 13.5636 h 3.175 v -6.8834 c 0,-2.6924 1.4224,-4.064 3.5306,-4.064 1.9304,0 3.048,1.1684 3.048,3.5814 v 7.366 h 3.175 v -6.8834 c 0,-2.6924 1.4478,-4.064 3.5306,-4.064 1.9304,0 3.047999,1.1684 3.047999,3.5814 v 7.366 h 3.175 v -7.7724 c 0,-4.0894 -2.286,-5.9436 -5.562599,-5.9436 z"
         id="path4266" />
      <path
         d="m 53.510763,115.64174 v 1.651 c -1.0922,-1.2192 -2.6162,-1.8034 -4.3434,-1.8034 -3.9624,0 -6.858,2.7178 -6.858,6.9342 0,4.2164 2.8956,6.9596 6.858,6.9596 1.8542,0 3.429,-0.635 4.4958,-1.9304 v 1.7526 h 3.0226 v -13.5636 z m -3.9878,11.0236 c -2.286,0 -4.0132,-1.651 -4.0132,-4.2418 0,-2.5908 1.7272,-4.2418 4.0132,-4.2418 2.3114,0 4.0386,1.651 4.0386,4.2418 0,2.5908 -1.7272,4.2418 -4.0386,4.2418 z"
         id="path4268" />
      <path
         d="m 67.074336,129.38314 c 2.6416,0 4.7498,-1.143 5.7912,-3.175 l -2.4384,-1.4224 c -0.8128,1.2954 -2.032,1.8796 -3.3782,1.8796 -2.3368,0 -4.114799,-1.6002 -4.114799,-4.2418 0,-2.6162 1.777999,-4.2418 4.114799,-4.2418 1.3462,0 2.5654,0.5842 3.3782,1.8796 l 2.4384,-1.4224 c -1.0414,-2.0574 -3.1496,-3.1496 -5.7912,-3.1496 -4.292599,0 -7.340599,2.8702 -7.340599,6.9342 0,4.064 3.048,6.9596 7.340599,6.9596 z"
         id="path4270" />
      <path
         d="m 83.177892,115.48934 c -1.8796,0 -3.4798,0.6096 -4.5212,1.7272 v -6.858 h -3.175 v 18.8468 h 3.175 v -6.858 c 0,-2.7178 1.524,-4.0894 3.7846,-4.0894 2.032,0 3.2258,1.1684 3.2258,3.5814 v 7.366 h 3.175 v -7.7724 c 0,-4.0894 -2.413,-5.9436 -5.6642,-5.9436 z"
         id="path4272" />
      <path
         d="m 94.480879,113.40654 c 1.1938,0 2.032,-0.8636 2.032,-1.9812 0,-1.0414 -0.8636,-1.8288 -2.032,-1.8288 -1.1684,0 -2.032,0.8382 -2.032,1.905 0,1.0668 0.8636,1.905 2.032,1.905 z m -1.6002,15.7988 h 3.175 v -13.5636 h -3.175 z"
         id="path4274" />
      <path
         d="m 107.91746,115.48934 c -1.9812,0 -3.6322,0.6604 -4.6736,1.905 v -1.7526 h -3.0226 v 13.5636 h 3.175 v -6.858 c 0,-2.7178 1.524,-4.0894 3.7846,-4.0894 2.032,0 3.2258,1.1684 3.2258,3.5814 v 7.366 h 3.175 v -7.7724 c 0,-4.0894 -2.413,-5.9436 -5.6642,-5.9436 z"
         id="path4276" />
      <path
         d="m 121.7901,124.25234 c 1.1938,0 2.0828,-0.8382 2.0828,-2.1336 0,-1.2446 -0.889,-2.1082 -2.0828,-2.1082 -1.1684,0 -2.0828,0.8636 -2.0828,2.1082 0,1.2954 0.9144,2.1336 2.0828,2.1336 z"
         id="path4278" />
      <path
         d="m 140.48867,110.35854 v 6.9596 c -1.0668,-1.2446 -2.6162,-1.8288 -4.3688,-1.8288 -3.937,0 -6.858,2.7178 -6.858,6.9342 0,4.2164 2.921,6.9596 6.858,6.9596 1.8542,0 3.429,-0.635 4.4958,-1.9304 v 1.7526 h 3.048 v -18.8468 z m -3.9878,16.3068 c -2.286,0 -4.0386,-1.651 -4.0386,-4.2418 0,-2.5908 1.7526,-4.2418 4.0386,-4.2418 2.286,0 4.0386,1.651 4.0386,4.2418 0,2.5908 -1.7526,4.2418 -4.0386,4.2418 z"
         id="path4280" />
      <path
         d="m 154.28083,126.69074 c -1.9812,0 -3.4544,-0.8382 -4.1148,-2.3876 l 10.3886,-2.032 c -0.0254,-4.2418 -3.0734,-6.7818 -6.858,-6.7818 -4.0386,0 -6.985,2.8956 -6.985,6.9342 0,4.0386 2.9464,6.9596 7.493,6.9596 2.3368,0 4.2418,-0.762 5.4356,-2.2098 l -1.6764,-1.9558 c -0.9906,0.9906 -2.159,1.4732 -3.683,1.4732 z m -0.5842,-8.6614 c 1.905,0 3.3274,1.1176 3.7592,2.7686 l -7.6708,1.4732 v -0.0254 c 0,-2.5908 1.6002,-4.2164 3.9116,-4.2164 z"
         id="path4282" />
      <path
         d="m 173.00058,115.64174 -4.3434,10.0584 -4.2164,-10.0584 h -3.302 l 5.8166,13.5636 h 3.2766 l 5.8166,-13.5636 z"
         id="path4284" />
    </g>
  </g>
</svg>
